<svg width="405" height="829" viewBox="0 0 405 829" fill="none" xmlns="http://www.w3.org/2000/svg">
<g opacity="0.1">
<path fill-rule="evenodd" clip-rule="evenodd" d="M474.358 327.63H397.827L374.156 400.49L374.264 400.565L397.827 328.004H474.35L497.921 400.565L498.021 400.49L474.358 327.63ZM466.122 339.385L466.113 339.369H406.063L406.055 339.385H466.122ZM436.092 390.84L444.628 384.642L441.362 374.601H430.823L427.548 384.642L436.092 390.84ZM361.248 404.7L389.831 316.632H482.346L510.929 404.7L436.092 459.116L361.248 404.7Z" fill="#4D84FF"/>
<path fill-rule="evenodd" clip-rule="evenodd" d="M482.62 317.181H389.548L360.79 405.677L436.08 460.366L511.386 405.677L482.62 317.181ZM348.295 409.734L381.833 306.557H490.336L523.882 409.734L436.08 473.509L348.295 409.734Z" fill="#4D84FF"/>
<path fill-rule="evenodd" clip-rule="evenodd" d="M490.89 305.296H381.295L347.425 409.421L436.088 473.784L524.752 409.421L490.89 305.296ZM335.342 413.342L373.844 295.043H498.341L536.835 413.342L436.088 486.462L335.342 413.342Z" fill="#4D84FF"/>
<path fill-rule="evenodd" clip-rule="evenodd" d="M499.149 293.419H373.027L334.034 413.174L436.084 487.175L538.135 413.174L499.149 293.419ZM322.389 416.952L365.824 283.53H506.344L549.788 416.952L436.084 499.415L322.389 416.952Z" fill="#4D84FF"/>
<path fill-rule="evenodd" clip-rule="evenodd" d="M506.308 281.537H364.446L320.595 416.924L435.373 500.589L550.151 416.924L506.308 281.537ZM309.436 420.56L357.547 272.016H513.199L561.302 420.56L435.373 512.368L309.436 420.56Z" fill="#4D84FF"/>
<path fill-rule="evenodd" clip-rule="evenodd" d="M514.559 269.663H356.171L307.235 420.67L435.369 513.986L563.503 420.67L514.559 269.663ZM296.482 424.163L349.54 260.502H521.189L574.255 424.163L435.369 525.321L296.482 424.163Z" fill="#4D84FF"/>
<path fill-rule="evenodd" clip-rule="evenodd" d="M522.823 257.79H347.914L293.857 424.408L435.365 527.382L576.88 424.408L522.823 257.79ZM283.529 427.768L341.537 248.988H529.209L587.208 427.768L435.365 538.274L283.529 427.768Z" fill="#4D84FF"/>
<path fill-rule="evenodd" clip-rule="evenodd" d="M531.096 245.909H339.65L280.478 428.163L435.365 540.801L590.259 428.163L531.096 245.909ZM270.576 431.373L333.527 237.474H537.211L600.161 431.373L435.365 551.227L270.576 431.373Z" fill="#4D84FF"/>
<path fill-rule="evenodd" clip-rule="evenodd" d="M539.352 235.477H331.386L267.098 433.339L435.365 555.635L603.639 433.339L539.352 235.477ZM257.623 436.424L325.516 227.399H545.213L613.114 436.424L435.365 565.62L257.623 436.424Z" fill="#4D84FF"/>
<path fill-rule="evenodd" clip-rule="evenodd" d="M547.622 223.589H323.124L253.734 437.097L435.369 569.037L617.012 437.097L547.622 223.589ZM244.67 440.04L317.518 215.885H553.219L626.068 440.04L435.369 578.573L244.67 440.04Z" fill="#4D84FF"/>
<path fill-rule="evenodd" clip-rule="evenodd" d="M555.883 211.725H314.855L240.352 440.844L435.369 582.44L630.386 440.844L555.883 211.725ZM231.717 443.647L309.513 204.372H561.224L639.021 443.647L435.369 591.526L231.717 443.647Z" fill="#4D84FF"/>
<path fill-rule="evenodd" clip-rule="evenodd" d="M564.149 199.846H306.581L226.97 444.581L435.369 595.841L643.768 444.581L564.149 199.846ZM218.764 447.25L301.511 192.858H569.218L651.974 447.25L435.369 604.479L218.764 447.25Z" fill="#4D84FF"/>
<path fill-rule="evenodd" clip-rule="evenodd" d="M572.426 187.95H298.328L213.603 448.327L435.369 609.251L657.151 448.327L572.426 187.95ZM205.811 450.863L293.514 181.344H577.232L664.927 450.863L435.369 617.432L205.811 450.863Z" fill="#4D84FF"/>
<path fill-rule="evenodd" clip-rule="evenodd" d="M580.681 176.087H290.056L200.228 452.074L435.365 622.653L670.509 452.074L580.681 176.087ZM192.857 454.461L285.499 169.83H585.238L677.88 454.461L435.365 630.385L192.857 454.461Z" fill="#4D84FF"/>
<path fill-rule="evenodd" clip-rule="evenodd" d="M588.956 164.208H281.79L186.845 455.832L435.373 636.062L683.901 455.832L588.956 164.208ZM181.639 459.329L179.904 458.07L277.497 158.316H593.257L690.833 458.07L435.373 643.339L181.639 459.329Z" fill="#4D84FF"/>
<path fill-rule="evenodd" clip-rule="evenodd" d="M597.21 152.338H273.519L173.461 459.563L435.365 649.455L697.268 459.563L597.21 152.338ZM166.951 461.684L269.484 146.802H601.237L703.786 461.684L435.365 656.292L166.951 461.684Z" fill="#4D84FF"/>
<path fill-rule="evenodd" clip-rule="evenodd" d="M605.487 141.89H265.251L160.086 464.76L435.369 664.295L710.652 464.76L605.487 141.89ZM153.998 466.724L261.48 136.727H609.257L716.739 466.724L435.369 670.684L153.998 466.724Z" fill="#4D84FF"/>
<path fill-rule="evenodd" clip-rule="evenodd" d="M614.034 130.011H258.143L148.144 468.504L436.084 677.696L724.034 468.504L614.034 130.011ZM142.484 470.335L254.655 125.214H617.522L729.693 470.335L436.084 683.637L142.484 470.335Z" fill="#4D84FF"/>
<path fill-rule="evenodd" clip-rule="evenodd" d="M622.3 118.149H249.868L134.753 472.243L436.084 691.097L737.425 472.243L622.3 118.149ZM130.832 474.894L129.531 473.941L246.653 113.7H625.533L742.646 473.941L436.084 696.59L130.832 474.894Z" fill="#4D84FF"/>
<path fill-rule="evenodd" clip-rule="evenodd" d="M630.563 106.262H241.614L121.394 475.989L436.088 704.498L750.791 475.989L630.563 106.262ZM116.578 477.547L238.646 102.186H633.539L755.599 477.547L436.089 709.543L116.578 477.547Z" fill="#4D84FF"/>
<path fill-rule="evenodd" clip-rule="evenodd" d="M764.174 479.741L638.838 94.3916H233.347L108.003 479.741L436.089 717.907L764.174 479.741ZM104.719 481.962L103.625 481.166L230.213 91.956L230.636 90.6719H641.541L768.552 481.166L437.183 721.709L436.089 722.497L104.719 481.962Z" fill="#4D84FF"/>
<path fill-rule="evenodd" clip-rule="evenodd" d="M647.107 82.5131H225.07L94.6274 483.477L436.093 731.299L777.55 483.477L647.107 82.5131ZM90.6719 484.769L222.632 79.158H649.545L781.505 484.769L436.093 735.45L90.6719 484.769Z" fill="#4D84FF"/>
<path fill-rule="evenodd" clip-rule="evenodd" d="M655.367 70.6345H216.802L81.2354 487.238L436.089 744.708L790.933 487.238L655.367 70.6345ZM78.5979 489.019L77.7188 488.389L214.28 68.6795L214.621 67.644H657.557L794.118 487.354L794.458 488.389L436.089 748.403L78.5979 489.019Z" fill="#4D84FF"/>
<path fill-rule="evenodd" clip-rule="evenodd" d="M663.644 60.1953H208.533L67.8598 492.413L436.084 759.54L804.317 492.413L663.644 60.1953ZM65.5371 493.978L64.7656 493.415L206.318 58.4806L206.625 57.5695H665.552L807.121 492.504L807.411 493.415L436.084 762.795L65.5371 493.978Z" fill="#4D84FF"/>
<path fill-rule="evenodd" clip-rule="evenodd" d="M817.677 496.163L671.908 48.3417H200.278L54.5006 496.163L436.089 772.94L817.677 496.163ZM52.4928 497.513L51.8125 497.025L198.37 46.8507L198.627 46.0555H673.559L820.107 496.238L820.365 497.025L436.761 775.251L436.089 775.748L52.4928 497.513Z" fill="#4D84FF"/>
<path fill-rule="evenodd" clip-rule="evenodd" d="M680.176 36.455H192.001L41.1081 499.909L436.084 786.349L831.061 499.909L680.176 36.455ZM39.4153 501.052L38.8594 500.638L190.399 35.2125L190.607 34.5416H681.562L833.11 499.984L833.318 500.638L436.084 788.701L39.4153 501.052Z" fill="#4D84FF"/>
<path fill-rule="evenodd" clip-rule="evenodd" d="M844.445 503.656L688.445 24.5767H183.74L27.7319 503.656L436.089 799.733L844.445 503.656ZM26.371 504.576L25.9062 504.236L182.437 23.5579L182.612 23.0278H689.574L846.097 503.706L846.271 504.236L436.553 801.315L436.089 801.655L26.371 504.576Z" fill="#4D84FF"/>
<path fill-rule="evenodd" clip-rule="evenodd" d="M857.813 508.283L696.708 12.6922H175.47L14.3558 508.283L436.08 814.57L857.813 508.283ZM13.31 508.988L12.9531 508.739L174.606 11.5139H697.571L859.224 508.739L436.429 815.79L436.08 816.047L13.31 508.988Z" fill="#4D84FF"/>
<path fill-rule="evenodd" clip-rule="evenodd" d="M166.596 0L166.505 0.290377L0 512.34L0.249023 512.523L436.089 829L436.329 828.818L872.177 512.34L872.094 512.058L705.589 0H166.596ZM0.971158 512.025L167.21 0.821367H704.975L871.206 512.025L436.089 827.963L0.971158 512.025Z" fill="#4D84FF"/>
</g>
</svg>
