<svg width="132" height="45" viewBox="0 0 132 45" fill="none" xmlns="http://www.w3.org/2000/svg">
<g clip-path="url(#clip0_747_10390)">
<path d="M120.92 0.26418H11.0607C10.6602 0.26418 10.2646 0.26418 9.86515 0.266369C9.53083 0.268558 9.19917 0.274916 8.86163 0.280267C8.12835 0.288914 7.39678 0.353562 6.67331 0.473648C5.95084 0.596348 5.25101 0.827672 4.59748 1.1598C3.94474 1.49473 3.34832 1.92995 2.82986 2.44965C2.30866 2.96789 1.87421 3.56691 1.5432 4.22367C1.21127 4.87913 0.981116 5.58151 0.860675 6.30655C0.739088 7.03068 0.673662 7.76316 0.664982 8.49742C0.654848 8.83294 0.653778 9.16958 0.648438 9.50515V34.8C0.653778 35.1398 0.654848 35.469 0.664982 35.8089C0.673664 36.5431 0.739091 37.2756 0.860675 37.9996C0.980783 38.7251 1.21095 39.4279 1.5432 40.0836C1.87405 40.7382 2.30857 41.3348 2.82986 41.8502C3.34636 42.3722 3.94317 42.8077 4.59748 43.1401C5.251 43.4731 5.95076 43.7058 6.67331 43.8304C7.39691 43.9495 8.1284 44.0142 8.86163 44.0239C9.19917 44.0313 9.53083 44.0356 9.86515 44.0356C10.2645 44.0378 10.6602 44.0378 11.0607 44.0378H120.92C121.312 44.0378 121.711 44.0378 122.103 44.0356C122.436 44.0356 122.777 44.0313 123.11 44.0239C123.842 44.0147 124.572 43.95 125.294 43.8304C126.019 43.7049 126.721 43.4723 127.378 43.1401C128.032 42.8075 128.627 42.372 129.144 41.8502C129.664 41.3328 130.099 40.7367 130.435 40.0836C130.764 39.4274 130.992 38.7247 131.11 37.9996C131.232 37.2755 131.3 36.5432 131.313 35.8089C131.317 35.469 131.318 35.1398 131.318 34.8C131.326 34.4024 131.326 34.0071 131.326 33.603V10.7C131.326 10.2992 131.326 9.90163 131.318 9.50515C131.318 9.16958 131.317 8.83294 131.313 8.49737C131.3 7.76305 131.232 7.03073 131.11 6.30651C130.991 5.58188 130.764 4.87956 130.435 4.22363C129.76 2.90722 128.691 1.83568 127.378 1.1597C126.721 0.828386 126.019 0.597122 125.294 0.473549C124.572 0.352934 123.842 0.288264 123.11 0.280114C122.777 0.274774 122.436 0.268361 122.103 0.266227C121.711 0.264038 121.312 0.264038 120.92 0.264038V0.26418Z" fill="white"/>
<path d="M9.87025 43.0801C9.53753 43.0801 9.21285 43.0758 8.88273 43.0684C8.19889 43.0595 7.51664 42.9998 6.84157 42.8899C6.21211 42.7813 5.60233 42.5792 5.03236 42.2903C4.4676 42.0039 3.95249 41.6282 3.50679 41.1778C3.05461 40.7327 2.67816 40.2165 2.39235 39.6496C2.10339 39.079 1.90341 38.4674 1.79938 37.836C1.68703 37.1577 1.62625 36.4717 1.61755 35.7842C1.61063 35.5534 1.60156 34.7849 1.60156 34.7849V9.50504C1.60156 9.50504 1.61122 8.7484 1.6176 8.52611C1.62593 7.83961 1.68637 7.15474 1.79837 6.47743C1.90259 5.84438 2.10273 5.231 2.39185 4.65853C2.67661 4.09201 3.05097 3.57539 3.50042 3.1287C3.94935 2.67777 4.4661 2.3002 5.03182 2.00977C5.60049 1.72183 6.20911 1.52117 6.8373 1.41452C7.51458 1.30351 8.19921 1.2435 8.88543 1.23498L9.87079 1.22162H122.097L123.095 1.23552C123.775 1.24361 124.453 1.30309 125.124 1.41345C125.759 1.52144 126.373 1.7235 126.949 2.01298C128.083 2.59828 129.005 3.52429 129.586 4.6612C129.871 5.22972 130.067 5.83809 130.17 6.46568C130.284 7.14855 130.348 7.8388 130.361 8.53093C130.364 8.84084 130.364 9.17374 130.364 9.50504C130.372 9.91542 130.372 10.3061 130.372 10.6999V33.6029C130.372 34.0005 130.372 34.3884 130.364 34.7796C130.364 35.1354 130.364 35.4614 130.359 35.797C130.347 36.4767 130.284 37.1547 130.172 37.8253C130.07 38.4612 129.872 39.0776 129.582 39.6529C129.295 40.2136 128.921 40.7254 128.474 41.1693C128.028 41.6221 127.512 41.9999 126.946 42.2883C126.372 42.5793 125.759 42.7822 125.124 42.8899C124.449 43.0004 123.767 43.0601 123.083 43.0684C122.763 43.0758 122.429 43.0801 122.103 43.0801L120.919 43.0823L9.87025 43.0801Z" fill="black"/>
<path d="M27.6968 22.48C27.7086 21.5666 27.9507 20.671 28.4006 19.8766C28.8506 19.0822 29.4937 18.4147 30.2703 17.9363C29.7769 17.2302 29.1261 16.6492 28.3696 16.2393C27.613 15.8294 26.7714 15.602 25.9118 15.575C24.0779 15.3821 22.3002 16.6746 21.3658 16.6746C20.4132 16.6746 18.9744 15.5942 17.4251 15.6261C16.423 15.6586 15.4463 15.9506 14.5903 16.4737C13.7343 16.9969 13.028 17.7334 12.5405 18.6113C10.4285 22.2756 12.0039 27.6609 14.027 30.6229C15.0392 32.0733 16.2222 33.6934 17.77 33.6359C19.2848 33.573 19.8506 32.668 21.6789 32.668C23.4904 32.668 24.0211 33.6359 25.6004 33.5994C27.2258 33.573 28.2498 32.1426 29.2266 30.6785C29.9538 29.645 30.5135 28.5028 30.8847 27.2942C29.9404 26.894 29.1346 26.224 28.5677 25.3679C28.0008 24.5118 27.6979 23.5075 27.6968 22.48Z" fill="white"/>
<path d="M24.7131 13.6276C25.5993 12.5615 26.0359 11.1912 25.9302 9.80762C24.5762 9.95012 23.3256 10.5986 22.4274 11.6238C21.9882 12.1247 21.6519 12.7073 21.4376 13.3385C21.2233 13.9697 21.1352 14.637 21.1784 15.3023C21.8557 15.3093 22.5256 15.1622 23.1379 14.8721C23.7501 14.582 24.2887 14.1565 24.7131 13.6276Z" fill="white"/>
<path d="M46.8427 29.9644H41.6737L40.4323 33.6375H38.2429L43.139 20.048H45.4137L50.3097 33.6375H48.083L46.8427 29.9644ZM42.2091 28.2694H46.3063L44.2865 22.3083H44.23L42.2091 28.2694Z" fill="white"/>
<path d="M60.8836 28.6835C60.8836 31.7624 59.2391 33.7406 56.7575 33.7406C56.1289 33.7735 55.5037 33.6284 54.9536 33.3218C54.4033 33.0153 53.9505 32.5596 53.6467 32.0071H53.5997V36.9146H51.5703V23.7291H53.5348V25.377H53.5721C53.8898 24.8271 54.3503 24.3739 54.9047 24.0654C55.459 23.757 56.0865 23.6049 56.7201 23.6254C59.2295 23.6254 60.8836 25.6132 60.8836 28.6835ZM58.7976 28.6835C58.7976 26.6776 57.7631 25.3588 56.1848 25.3588C54.6342 25.3588 53.5912 26.7054 53.5912 28.6835C53.5912 30.6798 54.6342 32.0168 56.1848 32.0168C57.7631 32.0168 58.7976 30.7076 58.7976 28.6835Z" fill="white"/>
<path d="M71.7649 28.6835C71.7649 31.7624 70.1205 33.7405 67.6388 33.7405C67.0102 33.7735 66.3851 33.6284 65.8348 33.3218C65.2847 33.0153 64.8318 32.5596 64.5281 32.0071H64.4811V36.9145H62.4517V23.7291H64.416V25.377H64.4533C64.7711 24.8271 65.2316 24.3738 65.786 24.0654C66.3404 23.757 66.9677 23.6049 67.6015 23.6254C70.1109 23.6254 71.7649 25.6132 71.7649 28.6835ZM69.6789 28.6835C69.6789 26.6776 68.6445 25.3588 67.0661 25.3588C65.5156 25.3588 64.4726 26.7054 64.4726 28.6835C64.4726 30.6798 65.5156 32.0168 67.0661 32.0168C68.6445 32.0168 69.6789 30.7076 69.6789 28.6835Z" fill="white"/>
<path d="M78.9575 29.851C79.1079 31.1986 80.4144 32.0834 82.1995 32.0834C83.9101 32.0834 85.1408 31.1986 85.1408 29.9835C85.1408 28.9287 84.3986 28.2971 82.6411 27.8642L80.8836 27.44C78.3934 26.8372 77.2374 25.6702 77.2374 23.7765C77.2374 21.4318 79.2765 19.8213 82.1719 19.8213C85.0373 19.8213 87.0017 21.4318 87.0678 23.7765H85.0192C84.8965 22.4203 83.7779 21.6017 82.143 21.6017C80.5082 21.6017 79.3894 22.43 79.3894 23.6354C79.3894 24.5962 80.1039 25.1615 81.8518 25.5943L83.3459 25.9619C86.1283 26.6213 87.2843 27.7413 87.2843 29.7291C87.2843 32.2715 85.2634 33.8638 82.0491 33.8638C79.0418 33.8638 77.0113 32.3089 76.8801 29.8509L78.9575 29.851Z" fill="white"/>
<path d="M91.665 21.3846V23.7293H93.5452V25.3398H91.665V30.8019C91.665 31.6504 92.0415 32.0458 92.868 32.0458C93.0912 32.0419 93.3141 32.0262 93.5356 31.9988V33.5997C93.164 33.6693 92.7863 33.7008 92.4084 33.6937C90.4067 33.6937 89.626 32.9403 89.626 31.0188V25.3398H88.1885V23.7293H89.626V21.3846H91.665Z" fill="white"/>
<path d="M94.6338 28.6842C94.6338 25.5669 96.4659 23.608 99.3229 23.608C102.189 23.608 104.013 25.5668 104.013 28.6842C104.013 31.8102 102.199 33.7605 99.3229 33.7605C96.4478 33.7605 94.6338 31.8102 94.6338 28.6842ZM101.946 28.6842C101.946 26.5458 100.968 25.2837 99.3229 25.2837C97.6785 25.2837 96.7016 26.5554 96.7016 28.6842C96.7016 30.8312 97.6785 32.0838 99.3229 32.0838C100.968 32.0838 101.945 30.8312 101.945 28.6842H101.946Z" fill="white"/>
<path d="M105.685 23.729H107.62V25.4154H107.668C107.798 24.8887 108.106 24.4232 108.539 24.0972C108.972 23.7712 109.504 23.6046 110.046 23.6253C110.279 23.6245 110.513 23.6499 110.741 23.7012V25.6034C110.446 25.513 110.137 25.4715 109.829 25.4806C109.534 25.4686 109.24 25.5207 108.967 25.6333C108.694 25.7458 108.449 25.9163 108.248 26.1328C108.047 26.3494 107.895 26.607 107.803 26.8878C107.712 27.1687 107.681 27.4663 107.715 27.7601V33.6368H105.685V23.729Z" fill="white"/>
<path d="M120.099 30.7276C119.827 32.5262 118.079 33.7605 115.842 33.7605C112.966 33.7605 111.181 31.8294 111.181 28.7313C111.181 25.6235 112.975 23.608 115.756 23.608C118.493 23.608 120.212 25.491 120.212 28.4951V29.1919H113.23V29.3148C113.197 29.6794 113.243 30.0467 113.364 30.3924C113.483 30.738 113.676 31.054 113.927 31.3195C114.179 31.5849 114.484 31.7937 114.822 31.9319C115.161 32.0701 115.524 32.1346 115.889 32.1211C116.368 32.1662 116.85 32.0549 117.261 31.8038C117.672 31.5527 117.992 31.1752 118.172 30.7276H120.099ZM113.239 27.7705H118.182C118.2 27.4427 118.15 27.1146 118.037 26.8068C117.922 26.4991 117.745 26.2183 117.518 25.9822C117.29 25.7461 117.016 25.5597 116.713 25.4347C116.41 25.3097 116.085 25.2488 115.756 25.2559C115.426 25.2539 115.099 25.3175 114.793 25.4431C114.487 25.5687 114.209 25.7537 113.975 25.9875C113.741 26.2213 113.555 26.4992 113.429 26.8052C113.303 27.1113 113.238 27.4393 113.239 27.7705Z" fill="white"/>
<path d="M41.9552 9.81912C42.3806 9.78852 42.8076 9.85293 43.2052 10.0077C43.6028 10.1625 43.9612 10.4038 44.2545 10.7142C44.5478 11.0246 44.7688 11.3963 44.9013 11.8026C45.0339 12.2089 45.0748 12.6396 45.0211 13.0637C45.0211 15.1498 43.8961 16.3489 41.9552 16.3489H39.6016V9.81912H41.9552ZM40.6135 15.4255H41.8421C42.1461 15.4437 42.4504 15.3937 42.7328 15.2792C43.0151 15.1647 43.2683 14.9886 43.4742 14.7637C43.6801 14.5387 43.8332 14.2706 43.9226 13.9788C44.0121 13.687 44.0354 13.379 43.991 13.077C44.0321 12.7762 44.0065 12.4701 43.9157 12.1804C43.825 11.8908 43.6714 11.6249 43.4659 11.4017C43.2605 11.1785 43.0085 11.0037 42.7278 10.8896C42.4471 10.7755 42.1446 10.7251 41.8421 10.7419H40.6135V15.4255Z" fill="white"/>
<path d="M46.165 13.883C46.1341 13.5592 46.171 13.2324 46.2735 12.9238C46.376 12.6151 46.5417 12.3313 46.7601 12.0905C46.9784 11.8498 47.2446 11.6574 47.5414 11.5258C47.8383 11.3942 48.1593 11.3262 48.484 11.3262C48.8086 11.3262 49.1297 11.3942 49.4266 11.5258C49.7234 11.6574 49.9896 11.8498 50.2079 12.0905C50.4263 12.3313 50.592 12.6151 50.6944 12.9238C50.7969 13.2324 50.8339 13.5592 50.803 13.883C50.8345 14.2072 50.798 14.5344 50.6957 14.8435C50.5935 15.1527 50.4278 15.437 50.2095 15.6782C49.9911 15.9195 49.7247 16.1122 49.4276 16.2441C49.1304 16.376 48.809 16.4442 48.484 16.4442C48.1589 16.4442 47.8375 16.376 47.5403 16.2441C47.2432 16.1122 46.9768 15.9195 46.7585 15.6782C46.54 15.437 46.3744 15.1527 46.2722 14.8435C46.17 14.5344 46.1335 14.2072 46.165 13.883ZM49.8048 13.883C49.8048 12.8148 49.326 12.1902 48.4855 12.1902C47.642 12.1902 47.1675 12.8148 47.1675 13.883C47.1675 14.9597 47.642 15.5796 48.4855 15.5796C49.326 15.5795 49.8048 14.9554 49.8048 13.883Z" fill="white"/>
<path d="M56.9664 16.3494H55.9597L54.9434 12.7201H54.8667L53.8546 16.3494H52.8574L51.502 11.4216H52.4863L53.3672 15.1818H53.4398L54.4507 11.4216H55.3817L56.3927 15.1818H56.4695L57.3461 11.4216H58.3166L56.9664 16.3494Z" fill="white"/>
<path d="M59.458 11.4217H60.3922V12.2045H60.4647C60.5877 11.9233 60.7952 11.6877 61.0582 11.5303C61.3213 11.3729 61.6268 11.3017 61.9322 11.3266C62.1714 11.3085 62.4117 11.3447 62.6351 11.4323C62.8585 11.52 63.0594 11.6569 63.2229 11.8329C63.3863 12.0089 63.5082 12.2196 63.5793 12.4492C63.6506 12.6788 63.6693 12.9215 63.6342 13.1594V16.3494H62.6637V13.4036C62.6637 12.6117 62.3204 12.2179 61.6026 12.2179C61.4401 12.2103 61.278 12.238 61.1272 12.2991C60.9765 12.3602 60.8407 12.4532 60.7291 12.5718C60.6177 12.6904 60.533 12.8318 60.4811 12.9863C60.4293 13.1407 60.4113 13.3046 60.4285 13.4666V16.3494H59.458V11.4217Z" fill="white"/>
<path d="M65.1802 9.49768H66.1506V16.3491H65.1802V9.49768Z" fill="white"/>
<path d="M67.4987 13.883C67.4679 13.5592 67.5048 13.2324 67.6074 12.9237C67.7099 12.615 67.8756 12.3312 68.094 12.0905C68.3123 11.8497 68.5785 11.6574 68.8754 11.5258C69.1723 11.3941 69.4933 11.3262 69.818 11.3262C70.1426 11.3262 70.4637 11.3941 70.7606 11.5258C71.0575 11.6574 71.3237 11.8497 71.542 12.0905C71.7603 12.3312 71.9261 12.615 72.0287 12.9237C72.1312 13.2324 72.1681 13.5592 72.1372 13.883C72.1687 14.2072 72.1322 14.5344 72.0299 14.8436C71.9277 15.1528 71.762 15.4371 71.5436 15.6783C71.3252 15.9195 71.0588 16.1122 70.7616 16.2441C70.4645 16.376 70.143 16.4442 69.818 16.4442C69.493 16.4442 69.1715 16.376 68.8743 16.2441C68.5772 16.1122 68.3108 15.9195 68.0924 15.6783C67.874 15.4371 67.7084 15.1528 67.6061 14.8436C67.5038 14.5344 67.4673 14.2072 67.4987 13.883ZM71.1386 13.883C71.1386 12.8149 70.6597 12.1902 69.8193 12.1902C68.9758 12.1902 68.5012 12.8149 68.5012 13.883C68.5012 14.9597 68.9758 15.5796 69.8193 15.5796C70.6597 15.5796 71.1386 14.9555 71.1386 13.883Z" fill="white"/>
<path d="M73.1597 14.9555C73.1597 14.0685 73.8187 13.5571 74.9885 13.4844L76.3205 13.4075V12.9821C76.3205 12.4617 75.9771 12.1678 75.3138 12.1678C74.7721 12.1678 74.3967 12.3671 74.289 12.7155H73.3495C73.4487 11.8691 74.2432 11.3262 75.3586 11.3262C76.5914 11.3262 77.2868 11.9412 77.2868 12.9821V16.3491H76.3525V15.6565H76.2758C76.1199 15.9049 75.9011 16.1075 75.6415 16.2434C75.3821 16.3793 75.0912 16.4438 74.7987 16.4302C74.5923 16.4518 74.3837 16.4297 74.1863 16.3655C73.9889 16.3012 73.8071 16.1962 73.6526 16.0573C73.4982 15.9183 73.3746 15.7485 73.2897 15.5587C73.2048 15.369 73.1605 15.1635 73.1597 14.9555ZM76.3205 14.5344V14.1224L75.1197 14.1994C74.4426 14.2448 74.1354 14.4756 74.1354 14.91C74.1354 15.3536 74.5193 15.6116 75.0473 15.6116C75.202 15.6273 75.3582 15.6117 75.5067 15.5656C75.6552 15.5196 75.793 15.444 75.9118 15.3435C76.0306 15.243 76.128 15.1196 76.1983 14.9806C76.2684 14.8416 76.31 14.6899 76.3205 14.5344Z" fill="white"/>
<path d="M78.5623 13.8831C78.5623 12.326 79.3611 11.3396 80.6034 11.3396C80.9108 11.3254 81.2158 11.3992 81.4828 11.5523C81.7498 11.7054 81.9679 11.9315 82.1114 12.2042H82.1839V9.49768H83.1544V16.3491H82.2244V15.5705H82.1477C81.993 15.8414 81.7674 16.0647 81.4952 16.2162C81.223 16.3678 80.9146 16.4418 80.6034 16.4303C79.3525 16.4304 78.5623 15.4439 78.5623 13.8831ZM79.5647 13.8831C79.5647 14.9283 80.0564 15.5572 80.8787 15.5572C81.6965 15.5572 82.2021 14.9192 82.2021 13.8874C82.2021 12.8604 81.6913 12.2133 80.8787 12.2133C80.0617 12.2133 79.5647 12.8465 79.5647 13.8831Z" fill="white"/>
<path d="M87.1704 13.883C87.1395 13.5592 87.1764 13.2324 87.2789 12.9238C87.3814 12.6151 87.5471 12.3313 87.7655 12.0905C87.9838 11.8498 88.2499 11.6574 88.5468 11.5258C88.8437 11.3942 89.1647 11.3262 89.4893 11.3262C89.8139 11.3262 90.135 11.3942 90.4318 11.5258C90.7287 11.6574 90.9948 11.8498 91.2132 12.0905C91.4315 12.3313 91.5973 12.6151 91.6998 12.9238C91.8022 13.2324 91.8392 13.5592 91.8083 13.883C91.8398 14.2072 91.8032 14.5344 91.701 14.8435C91.5989 15.1527 91.4332 15.437 91.2149 15.6782C90.9964 15.9195 90.7301 16.1122 90.4329 16.2441C90.1358 16.376 89.8143 16.4442 89.4893 16.4442C89.1643 16.4442 88.8429 16.376 88.5457 16.2441C88.2485 16.1122 87.9822 15.9195 87.7639 15.6782C87.5454 15.437 87.3798 15.1527 87.2776 14.8435C87.1754 14.5344 87.1389 14.2072 87.1704 13.883ZM90.8101 13.883C90.8101 12.8148 90.3312 12.1902 89.4909 12.1902C88.6474 12.1902 88.1729 12.8148 88.1729 13.883C88.1729 14.9597 88.6474 15.5796 89.4909 15.5796C90.3312 15.5795 90.8101 14.9554 90.8101 13.883Z" fill="white"/>
<path d="M93.1096 11.4217H94.0439V12.2045H94.1164C94.2394 11.9233 94.4469 11.6877 94.7099 11.5303C94.973 11.3729 95.2784 11.3017 95.5838 11.3266C95.8231 11.3085 96.0633 11.3447 96.2867 11.4323C96.5101 11.52 96.711 11.6569 96.8746 11.8329C97.038 12.0089 97.1599 12.2196 97.231 12.4492C97.3023 12.6788 97.3209 12.9215 97.2858 13.1594V16.3494H96.3154V13.4036C96.3154 12.6117 95.972 12.2179 95.2543 12.2179C95.0918 12.2103 94.9297 12.238 94.7789 12.2991C94.6281 12.3602 94.4923 12.4532 94.3808 12.5718C94.2693 12.6904 94.1847 12.8318 94.1328 12.9863C94.0809 13.1407 94.0629 13.3046 94.0802 13.4666V16.3494H93.1096V11.4217Z" fill="white"/>
<path d="M102.769 10.194V11.4434H103.835V12.2625H102.769V14.7964C102.769 15.3126 102.981 15.5386 103.464 15.5386C103.588 15.5382 103.711 15.5307 103.835 15.5161V16.3262C103.66 16.3575 103.483 16.3741 103.307 16.3759C102.227 16.3759 101.797 15.9954 101.797 15.0454V12.2625H101.017V11.4433H101.797V10.194H102.769Z" fill="white"/>
<path d="M105.16 9.49768H106.122V12.2133H106.199C106.328 11.9295 106.541 11.6925 106.809 11.5345C107.078 11.3765 107.388 11.3053 107.699 11.3305C107.936 11.3176 108.175 11.3574 108.395 11.4472C108.617 11.5369 108.814 11.6745 108.976 11.8499C109.139 12.0254 109.259 12.2345 109.331 12.4622C109.403 12.69 109.424 12.9309 109.392 13.1676V16.3491H108.42V13.4075C108.42 12.6204 108.055 12.2218 107.369 12.2218C107.203 12.2081 107.034 12.2311 106.877 12.2891C106.721 12.3472 106.578 12.4389 106.46 12.5579C106.342 12.6769 106.252 12.8203 106.195 12.978C106.138 13.1358 106.116 13.304 106.131 13.4711V16.3491H105.16V9.49768Z" fill="white"/>
<path d="M115.051 15.0186C114.918 15.4689 114.633 15.8585 114.244 16.1191C113.854 16.3797 113.386 16.4948 112.92 16.4442C112.596 16.4528 112.274 16.3906 111.977 16.262C111.679 16.1333 111.413 15.9414 111.196 15.6994C110.981 15.4574 110.819 15.1711 110.725 14.8605C110.63 14.5499 110.605 14.2224 110.648 13.9007C110.606 13.578 110.631 13.2498 110.726 12.9382C110.821 12.6267 110.981 12.3392 111.196 12.095C111.411 11.8509 111.675 11.6559 111.973 11.5233C112.269 11.3907 112.59 11.3235 112.916 11.3262C114.284 11.3262 115.109 12.263 115.109 13.8104V14.1497H111.637V14.2042C111.621 14.3851 111.644 14.5671 111.703 14.7386C111.763 14.9102 111.857 15.0674 111.981 15.2003C112.103 15.3332 112.253 15.4389 112.42 15.5104C112.586 15.582 112.766 15.6179 112.947 15.6159C113.179 15.6438 113.414 15.602 113.622 15.4956C113.831 15.3892 114.002 15.2231 114.116 15.0185L115.051 15.0186ZM111.637 13.4305H114.121C114.133 13.2651 114.11 13.099 114.055 12.9428C113.999 12.7866 113.912 12.6438 113.798 12.5236C113.684 12.4034 113.545 12.3084 113.393 12.2447C113.24 12.1811 113.075 12.1501 112.911 12.1539C112.742 12.1518 112.575 12.1834 112.421 12.2468C112.265 12.3102 112.123 12.4042 112.005 12.5232C111.887 12.6421 111.793 12.7837 111.729 12.9395C111.666 13.0954 111.634 13.2623 111.637 13.4305Z" fill="white"/>
</g>
<defs>
<clipPath id="clip0_747_10390">
<rect width="130.724" height="44" fill="white" transform="translate(0.648438 0.26416)"/>
</clipPath>
</defs>
</svg>
