<svg width="148" height="45" viewBox="0 0 148 45" fill="none" xmlns="http://www.w3.org/2000/svg">
<g clip-path="url(#clip0_747_10417)">
<path d="M142.228 0.26416H5.72336C2.70778 0.26416 0.263184 2.71392 0.263184 5.73585V38.5661C0.263184 41.588 2.70778 44.0378 5.72336 44.0378H142.228C145.244 44.0378 147.687 41.588 147.687 38.5661V5.73585C147.687 2.71392 145.244 0.26416 142.228 0.26416Z" fill="black"/>
<path d="M142.228 1.13963C143.444 1.13963 144.611 1.62387 145.471 2.48583C146.331 3.34779 146.814 4.51686 146.814 5.73585V38.5661C146.814 39.7851 146.331 40.9541 145.471 41.8161C144.611 42.678 143.444 43.1623 142.228 43.1623H5.72336C4.50693 43.1623 3.34032 42.678 2.48018 41.8161C1.62004 40.9541 1.13681 39.7851 1.13681 38.5661V5.73585C1.13681 4.51686 1.62004 3.34779 2.48018 2.48583C3.34032 1.62387 4.50693 1.13963 5.72336 1.13963H142.228ZM142.228 0.26416H5.72336C4.27523 0.26416 2.88642 0.84064 1.86243 1.86678C0.83845 2.89292 0.263184 4.28467 0.263184 5.73585V38.5661C0.263184 40.0172 0.83845 41.409 1.86243 42.4351C2.88642 43.4613 4.27523 44.0378 5.72336 44.0378H142.228C143.676 44.0378 145.065 43.4613 146.089 42.4351C147.113 41.409 147.687 40.0172 147.687 38.5661V5.73585C147.687 4.28467 147.113 2.89292 146.089 1.86678C145.065 0.84064 143.676 0.26416 142.228 0.26416Z" fill="white"/>
<path d="M52.0478 11.4708C52.0657 11.8721 52.0023 12.2729 51.8615 12.649C51.7208 13.0252 51.5056 13.3689 51.2287 13.6594C50.9184 13.9804 50.5441 14.2321 50.1301 14.3981C49.7161 14.564 49.2718 14.6405 48.8262 14.6225C48.3781 14.6325 47.9327 14.5502 47.5176 14.3808C47.1025 14.2114 46.7265 13.9584 46.4128 13.6376C46.0893 13.3229 45.8341 12.9448 45.663 12.5267C45.4921 12.1087 45.409 11.6598 45.419 11.2081C45.4075 10.7546 45.4898 10.3036 45.6608 9.88357C45.8319 9.46355 46.0879 9.0836 46.4128 8.76771C46.8993 8.29132 47.5155 7.96965 48.1839 7.84309C48.8522 7.71653 49.543 7.79074 50.1694 8.05639C50.5632 8.2186 50.9144 8.46948 51.1959 8.78959L50.6172 9.36959C50.4003 9.1078 50.1255 8.90027 49.8147 8.7635C49.5037 8.62672 49.1653 8.56447 48.8262 8.58167C48.4852 8.57999 48.1472 8.64736 47.8327 8.77973C47.5182 8.91211 47.2336 9.10676 46.996 9.35202C46.7584 9.59728 46.5727 9.8881 46.45 10.207C46.3272 10.526 46.27 10.8665 46.2818 11.2081C46.2746 11.7182 46.4184 12.219 46.6949 12.6474C46.9715 13.0757 47.3684 13.4123 47.8357 13.6149C48.303 13.8174 48.8196 13.8767 49.3204 13.7853C49.8213 13.6939 50.2839 13.4559 50.6499 13.1013C50.9867 12.7359 51.1839 12.2631 51.2069 11.7662H48.8262V10.9783H52.004C52.0285 11.1414 52.0431 11.3059 52.0478 11.4708Z" fill="white" stroke="white" stroke-width="0.2" stroke-miterlimit="10"/>
<path d="M57.0493 8.73455H54.1008V10.8138H56.7873V11.6018H54.1008V13.681H57.0493V14.4908H53.249V7.92474H57.0493V8.73455Z" fill="white" stroke="white" stroke-width="0.2" stroke-miterlimit="10"/>
<path d="M60.6314 14.4908H59.7904V8.73455H57.9558V7.92474H62.5096V8.73455H60.6314V14.4908Z" fill="white" stroke="white" stroke-width="0.2" stroke-miterlimit="10"/>
<path d="M65.7188 14.4908V7.92474H66.5597V14.4908H65.7188Z" fill="white" stroke="white" stroke-width="0.2" stroke-miterlimit="10"/>
<path d="M70.2946 14.4908H69.4538V8.73455H67.6191V7.92474H72.1183V8.73455H70.2946V14.4908Z" fill="white" stroke="white" stroke-width="0.2" stroke-miterlimit="10"/>
<path d="M80.6487 13.6369C80.3334 13.9532 79.9589 14.2041 79.5466 14.3753C79.1344 14.5465 78.6925 14.6347 78.2463 14.6347C77.8 14.6347 77.3581 14.5465 76.9459 14.3753C76.5337 14.2041 76.1592 13.9532 75.8438 13.6369C75.5262 13.3194 75.277 12.94 75.1117 12.5221C74.9463 12.1042 74.8685 11.6567 74.8828 11.2074C74.8685 10.7581 74.9463 10.3107 75.1117 9.89272C75.277 9.47482 75.5262 9.09539 75.8438 8.77795C76.1524 8.45271 76.5257 8.19602 76.9395 8.02448C77.3533 7.85293 77.7986 7.77036 78.2463 7.7821C78.6933 7.77502 79.1371 7.85971 79.5503 8.03098C79.9634 8.20224 80.3373 8.45645 80.6487 8.77795C80.9627 9.09804 81.2096 9.47793 81.3747 9.89519C81.5397 10.3125 81.6196 10.7587 81.6098 11.2074C81.624 11.6567 81.5462 12.1042 81.3808 12.5221C81.2156 12.94 80.9663 13.3194 80.6487 13.6369ZM76.4662 13.0897C76.6989 13.3259 76.976 13.5135 77.2816 13.6415C77.5872 13.7696 77.9151 13.8355 78.2463 13.8355C78.5775 13.8355 78.9054 13.7696 79.2109 13.6415C79.5165 13.5135 79.7937 13.3259 80.0263 13.0897C80.2682 12.8413 80.4577 12.5466 80.5833 12.2232C80.7091 11.8998 80.7684 11.5543 80.758 11.2074C80.7628 10.8574 80.6965 10.5101 80.5632 10.1864C80.43 9.86287 80.2324 9.56983 79.9826 9.32512C79.75 9.08888 79.4728 8.9013 79.1672 8.77327C78.8617 8.64523 78.5338 8.5793 78.2026 8.5793C77.8714 8.5793 77.5435 8.64523 77.2379 8.77327C76.9323 8.9013 76.6552 9.08888 76.4226 9.32512C76.1885 9.57708 76.0071 9.87339 75.8889 10.1966C75.7708 10.5199 75.7183 10.8636 75.7346 11.2074C75.7241 11.5543 75.7835 11.8998 75.9092 12.2232C76.0348 12.5466 76.2243 12.8413 76.4662 13.0897Z" fill="white" stroke="white" stroke-width="0.2" stroke-miterlimit="10"/>
<path d="M82.7981 14.4908V7.92474H83.8137L87.0024 13.0353V11.7659V7.92474H87.8433V14.4908H86.9696L83.6389 9.13946V10.398V14.4908H82.7981Z" fill="white" stroke="white" stroke-width="0.2" stroke-miterlimit="10"/>
<path d="M74.674 24.0656C73.754 24.0677 72.8552 24.3432 72.0913 24.8573C71.3275 25.3714 70.733 26.1008 70.3828 26.9535C70.0327 27.8062 69.9428 28.7438 70.1244 29.6476C70.3061 30.5515 70.751 31.3812 71.4031 32.0316C72.0553 32.682 72.8852 33.1241 73.7881 33.3018C74.6909 33.4796 75.6261 33.3851 76.4753 33.0302C77.3246 32.6754 78.0497 32.0762 78.559 31.3083C79.0685 30.5405 79.3392 29.6385 79.337 28.7165C79.3459 28.1014 79.2312 27.4908 78.9998 26.9211C78.7683 26.3513 78.4248 25.8341 77.9897 25.4001C77.5547 24.9661 77.0369 24.6244 76.4673 24.3951C75.8977 24.1658 75.2877 24.0537 74.674 24.0656ZM74.674 31.5399C74.11 31.5794 73.5473 31.448 73.0588 31.1628C72.5704 30.8775 72.1789 30.4516 71.9352 29.9404C71.6915 29.4293 71.6069 28.8564 71.6924 28.2964C71.7778 27.7364 72.0295 27.2151 72.4146 26.8003C72.7996 26.3855 73.3002 26.0964 73.8515 25.9705C74.4027 25.8447 74.9789 25.8879 75.5053 26.0945C76.0317 26.3012 76.4838 26.6618 76.8029 27.1294C77.1221 27.597 77.2935 28.15 77.2949 28.7165C77.3125 29.0754 77.2582 29.4343 77.1351 29.7719C77.0122 30.1095 76.8229 30.419 76.5787 30.6821C76.3344 30.9453 76.0401 31.1567 75.713 31.304C75.3858 31.4514 75.0326 31.5316 74.674 31.5399ZM64.4962 24.0656C63.5762 24.0677 62.6774 24.3432 61.9136 24.8573C61.1498 25.3714 60.5551 26.1008 60.2051 26.9535C59.855 27.8062 59.765 28.7438 59.9466 29.6476C60.1282 30.5515 60.5733 31.3812 61.2254 32.0316C61.8775 32.682 62.7075 33.1241 63.6103 33.3018C64.5132 33.4796 65.4483 33.3851 66.2975 33.0302C67.1467 32.6754 67.8719 32.0762 68.3813 31.3083C68.8906 30.5405 69.1614 29.6385 69.1593 28.7165C69.1682 28.1014 69.0535 27.4908 68.822 26.9211C68.5906 26.3513 68.247 25.8341 67.8119 25.4001C67.3768 24.9661 66.8591 24.6244 66.2894 24.3951C65.7198 24.1658 65.11 24.0537 64.4962 24.0656ZM64.4962 31.5399C63.9323 31.5794 63.3695 31.448 62.8811 31.1628C62.3927 30.8775 62.0012 30.4516 61.7575 29.9404C61.5138 29.4293 61.4292 28.8564 61.5146 28.2964C61.6001 27.7364 61.8518 27.2151 62.2368 26.8003C62.6219 26.3855 63.1225 26.0964 63.6737 25.9705C64.2249 25.8447 64.8012 25.8879 65.3275 26.0945C65.8539 26.3012 66.306 26.6618 66.6252 27.1294C66.9443 27.597 67.1158 28.15 67.1172 28.7165C67.1347 29.0754 67.0805 29.4343 66.9574 29.7719C66.8344 30.1095 66.6452 30.419 66.4009 30.6821C66.1566 30.9453 65.8622 31.1567 65.5351 31.304C65.208 31.4514 64.8548 31.5316 64.4962 31.5399ZM52.3965 25.4991V27.4689H57.1141C57.0401 28.3967 56.6553 29.2722 56.0221 29.9531C55.5488 30.4363 54.9797 30.8145 54.3514 31.0633C53.723 31.3122 53.0497 31.426 52.3747 31.3976C50.9844 31.3976 49.6512 30.8442 48.6682 29.8591C47.6852 28.874 47.1329 27.5379 47.1329 26.1448C47.1329 24.7517 47.6852 23.4156 48.6682 22.4305C49.6512 21.4454 50.9844 20.892 52.3747 20.892C53.7075 20.8721 54.9944 21.3793 55.9565 22.3037L57.3434 20.9139C56.6926 20.2688 55.9198 19.7603 55.0703 19.4183C54.2209 19.0763 53.3118 18.9076 52.3965 18.9222C51.4257 18.8843 50.4572 19.0432 49.5491 19.3894C48.6411 19.7356 47.8121 20.2619 47.1119 20.9368C46.4117 21.6118 45.8546 22.4214 45.474 23.3172C45.0935 24.2131 44.8975 25.1767 44.8975 26.1503C44.8975 27.1239 45.0935 28.0875 45.474 28.9833C45.8546 29.8791 46.4117 30.6888 47.1119 31.3637C47.8121 32.0386 48.6411 32.5649 49.5491 32.9111C50.4572 33.2573 51.4257 33.4162 52.3965 33.3784C53.3307 33.4158 54.2621 33.2547 55.1298 32.9058C55.9974 32.5569 56.7816 32.028 57.4308 31.3538C58.5776 30.0914 59.1886 28.4311 59.1343 26.7248C59.1383 26.3141 59.1054 25.9039 59.0361 25.4991H52.3965ZM101.877 27.0312C101.592 26.1916 101.059 25.4584 100.349 24.9288C99.6396 24.3992 98.786 24.0982 97.9016 24.0656C97.3043 24.0644 96.713 24.186 96.1644 24.4229C95.6159 24.6598 95.1216 25.0069 94.7122 25.4428C94.3028 25.8787 93.987 26.3941 93.7842 26.9572C93.5815 27.5203 93.4961 28.1191 93.5335 28.7165C93.5242 29.7155 93.8375 30.6906 94.4269 31.4964C95.0162 32.3021 95.8499 32.8952 96.8033 33.187C97.7567 33.4788 98.7788 33.4537 99.7168 33.1154C100.655 32.7771 101.459 32.1438 102.008 31.3101L100.424 30.2157C100.189 30.61 99.8533 30.9356 99.453 31.1602C99.0526 31.3848 98.6007 31.5006 98.1418 31.4961C97.6685 31.5157 97.2004 31.3913 96.7989 31.1394C96.3974 30.8874 96.0814 30.5197 95.8923 30.0844L102.106 27.5127L101.877 27.0312ZM95.5428 28.5852C95.5207 28.2458 95.5666 27.9054 95.6776 27.5841C95.7888 27.2627 95.9629 26.9669 96.1898 26.714C96.4168 26.4611 96.6918 26.2563 96.9989 26.1115C97.3061 25.9668 97.639 25.8851 97.9781 25.8712C98.3287 25.8487 98.6783 25.9301 98.9832 26.1052C99.288 26.2804 99.5347 26.5415 99.6926 26.8561L95.5428 28.5852ZM90.4976 33.0938H92.5397V19.4146H90.4976V33.0938ZM87.156 25.1052H87.0796C86.7695 24.767 86.3907 24.4992 85.9688 24.3199C85.5469 24.1406 85.0916 24.0538 84.6334 24.0656C83.4399 24.1235 82.3146 24.6394 81.4905 25.5063C80.6663 26.3732 80.2067 27.5246 80.2067 28.722C80.2067 29.9193 80.6663 31.0707 81.4905 31.9376C82.3146 32.8045 83.4399 33.3204 84.6334 33.3784C85.0963 33.3877 85.5557 33.2944 85.9786 33.1052C86.4014 32.9161 86.7773 32.6357 87.0796 32.284H87.156V32.9516C87.156 34.7354 86.2059 35.6874 84.677 35.6874C84.1663 35.6762 83.6705 35.5131 83.2524 35.2189C82.8344 34.9247 82.5131 34.5126 82.3292 34.035L80.5601 34.7682C80.8871 35.5914 81.4558 36.2958 82.191 36.7882C82.926 37.2806 83.7929 37.5378 84.677 37.5259C87.0686 37.5259 89.0452 36.1142 89.0452 32.678V24.3391H87.156V25.1052ZM84.8081 31.5399C84.0926 31.4952 83.421 31.1788 82.9301 30.6553C82.4393 30.1317 82.1659 29.4404 82.1659 28.722C82.1659 28.0036 82.4393 27.3122 82.9301 26.7886C83.421 26.2651 84.0926 25.9487 84.8081 25.904C85.1578 25.9192 85.5009 26.0046 85.817 26.1553C86.1331 26.3061 86.4157 26.5189 86.648 26.7813C86.8803 27.0437 87.0575 27.3503 87.1692 27.6827C87.2808 28.0152 87.3247 28.3667 87.2979 28.7165C87.3277 29.0674 87.2862 29.4208 87.1759 29.7552C87.0654 30.0896 86.8886 30.3981 86.6558 30.662C86.4231 30.9259 86.1394 31.1398 85.8217 31.2907C85.5042 31.4416 85.1593 31.5264 84.8081 31.5399ZM111.443 19.4146H106.55V33.0938H108.593V27.9067H111.443C112.025 27.9486 112.609 27.8699 113.159 27.6755C113.71 27.4811 114.214 27.1751 114.641 26.7768C115.068 26.3784 115.41 25.8961 115.642 25.36C115.876 24.8238 115.995 24.2454 115.995 23.6606C115.995 23.0759 115.876 22.4974 115.642 21.9613C115.41 21.4252 115.068 20.9429 114.641 20.5445C114.214 20.1461 113.71 19.8402 113.159 19.6458C112.609 19.4514 112.025 19.3727 111.443 19.4146ZM111.443 25.9806H108.593V21.3188H111.487C112.106 21.3188 112.701 21.5655 113.139 22.0047C113.577 22.4439 113.824 23.0395 113.824 23.6606C113.824 24.2818 113.577 24.8774 113.139 25.3166C112.701 25.7558 112.106 26.0025 111.487 26.0025L111.443 25.9806ZM124.045 24.0218C123.301 23.9758 122.56 24.1493 121.914 24.5208C121.268 24.8923 120.744 25.4455 120.408 26.112L122.21 26.8671C122.393 26.5381 122.665 26.269 122.996 26.0923C123.329 25.9156 123.704 25.8388 124.077 25.8712C124.337 25.8409 124.599 25.8626 124.851 25.935C125.101 26.0075 125.335 26.1293 125.538 26.2933C125.742 26.4573 125.91 26.6603 126.034 26.8903C126.159 27.1203 126.236 27.3728 126.262 27.6331V27.7644C125.605 27.4185 124.875 27.2382 124.132 27.2391C122.188 27.2391 120.201 28.3335 120.201 30.3252C120.22 30.7485 120.324 31.1637 120.507 31.546C120.689 31.9283 120.946 32.2699 121.263 32.5506C121.579 32.8313 121.95 33.0454 122.351 33.1801C122.752 33.3147 123.175 33.3673 123.597 33.3346C124.109 33.363 124.62 33.2543 125.077 33.0197C125.534 32.7851 125.92 32.433 126.196 31.9995H126.262V33.0938H128.227V27.8301C128.227 25.4335 126.414 24.0437 124.088 24.0437L124.045 24.0218ZM123.794 31.518C123.127 31.518 122.199 31.1788 122.199 30.358C122.199 29.2637 123.357 28.8916 124.384 28.8916C125.032 28.8755 125.673 29.0343 126.24 29.3512C126.172 29.9455 125.89 30.4948 125.448 30.8972C125.006 31.2996 124.434 31.528 123.838 31.5399L123.794 31.518ZM135.391 24.3391L133.054 30.2705H132.988L130.565 24.3391H128.38L132.016 32.6342L129.942 37.2414H132.126L137.663 24.3391H135.391ZM117.045 33.0938H119.076V19.4146H117.045V33.0938Z" fill="white"/>
<path d="M11.6637 8.51532C11.3157 8.94655 11.1439 9.49414 11.1833 10.0474V34.2542C11.1461 34.8127 11.3305 35.3634 11.6966 35.7863L11.773 35.8738L25.2705 22.315V21.9867L11.7402 8.43872L11.6637 8.51532Z" fill="url(#paint0_linear_747_10417)"/>
<path d="M29.7484 26.8345L25.271 22.3149V21.9866L29.7484 17.467L29.8466 17.5326L35.2085 20.5749C36.7374 21.4394 36.7374 22.862 35.2085 23.7375L29.8685 26.7798L29.7484 26.8345Z" fill="url(#paint1_linear_747_10417)"/>
<path d="M29.878 26.7806L25.2696 22.1515L11.6628 35.787C11.9714 36.0622 12.3664 36.2206 12.7793 36.2346C13.1922 36.2486 13.597 36.1173 13.9234 35.8636L29.878 26.7806Z" fill="url(#paint2_linear_747_10417)"/>
<path d="M29.878 17.533L13.9234 8.44996C13.5991 8.1927 13.1946 8.05825 12.7812 8.07026C12.3678 8.08227 11.9717 8.23997 11.6628 8.51562L25.2696 22.1511L29.878 17.533Z" fill="url(#paint3_linear_747_10417)"/>
<path opacity="0.2" d="M29.7469 26.6703L13.9234 35.6987C13.6088 35.9366 13.2254 36.0653 12.8313 36.0653C12.4372 36.0653 12.0538 35.9366 11.7393 35.6987L11.6628 35.7753L11.7393 35.8629C12.0538 36.1007 12.4372 36.2295 12.8313 36.2295C13.2254 36.2295 13.6088 36.1007 13.9234 35.8629L29.878 26.7798L29.7469 26.6703Z" fill="black"/>
<path opacity="0.12" d="M11.6645 35.6331C11.3137 35.199 11.1418 34.647 11.184 34.0901V34.2542C11.1468 34.8128 11.3313 35.3635 11.6972 35.7864L11.7737 35.7097L11.6645 35.6331Z" fill="black"/>
<path opacity="0.12" d="M35.208 23.5742L29.7478 26.6711L29.8461 26.7806L35.208 23.7274C35.5245 23.5933 35.7991 23.3761 36.0028 23.0988C36.2065 22.8215 36.3318 22.4942 36.3655 22.1515C36.2973 22.4629 36.157 22.7539 35.9559 23.001C35.7548 23.2481 35.4987 23.4445 35.208 23.5742Z" fill="black"/>
<path opacity="0.25" d="M13.9246 8.60279L35.2084 20.7281C35.499 20.8578 35.7553 21.0541 35.9563 21.3012C36.1573 21.5484 36.2977 21.8393 36.366 22.1507C36.3322 21.8081 36.2069 21.4808 36.0031 21.2035C35.7995 20.9262 35.5249 20.709 35.2084 20.5749L13.9246 8.44958C12.4067 7.57411 11.1836 8.29638 11.1836 10.0473V10.2115C11.1836 8.46053 12.4067 7.73826 13.9246 8.60279Z" fill="white"/>
</g>
<defs>
<linearGradient id="paint0_linear_747_10417" x1="24.0693" y1="9.7957" x2="5.70631" y2="28.12" gradientUnits="userSpaceOnUse">
<stop stop-color="#00A0FF"/>
<stop offset="0.01" stop-color="#00A1FF"/>
<stop offset="0.26" stop-color="#00BEFF"/>
<stop offset="0.51" stop-color="#00D2FF"/>
<stop offset="0.76" stop-color="#00DFFF"/>
<stop offset="1" stop-color="#00E3FF"/>
</linearGradient>
<linearGradient id="paint1_linear_747_10417" x1="37.2069" y1="22.1507" x2="10.7906" y2="22.1507" gradientUnits="userSpaceOnUse">
<stop stop-color="#FFE000"/>
<stop offset="0.41" stop-color="#FFBD00"/>
<stop offset="0.78" stop-color="#FFA500"/>
<stop offset="1" stop-color="#FF9C00"/>
</linearGradient>
<linearGradient id="paint2_linear_747_10417" x1="27.3772" y1="24.6685" x2="2.47014" y2="49.5122" gradientUnits="userSpaceOnUse">
<stop stop-color="#FF3A44"/>
<stop offset="1" stop-color="#C31162"/>
</linearGradient>
<linearGradient id="paint3_linear_747_10417" x1="8.23386" y1="0.461288" x2="19.3524" y2="11.5563" gradientUnits="userSpaceOnUse">
<stop stop-color="#32A071"/>
<stop offset="0.07" stop-color="#2DA771"/>
<stop offset="0.48" stop-color="#15CF74"/>
<stop offset="0.8" stop-color="#06E775"/>
<stop offset="1" stop-color="#00F076"/>
</linearGradient>
<clipPath id="clip0_747_10417">
<rect width="147.688" height="44" fill="white" transform="translate(0 0.26416)"/>
</clipPath>
</defs>
</svg>
